<svg id="图层_1" data-name="图层 1" xmlns="http://www.w3.org/2000/svg" viewBox="0 0 1025 1025"><defs><style>.cls-1,.cls-3{fill:none;}.cls-2{fill:#dfe6f0;}.cls-3,.cls-8{stroke:#000;}.cls-3{stroke-width:5px;}.cls-4{fill:#444;}.cls-11,.cls-12,.cls-13,.cls-14,.cls-5,.cls-6,.cls-7,.cls-9{isolation:isolate;}.cls-5{font-size:59.98px;}.cls-5,.cls-7,.cls-9{font-family:ArialMT, Arial;}.cls-6,.cls-7{font-size:32px;}.cls-12,.cls-6{font-family:AdobeSongStd-Light-GBpc-EUC-H, Adobe Song Std;}.cls-9{font-size:42.39px;}.cls-10{fill:#2c2c2c;}.cls-11,.cls-14,.cls-15{font-size:60px;}.cls-11,.cls-15{font-family:MicrosoftYaHei-Bold, Microsoft YaHei;}.cls-11,.cls-13,.cls-14,.cls-15{font-weight:700;}.cls-12{font-size:49.94px;}.cls-13{font-size:59.93px;}.cls-13,.cls-14{font-family:Arial-BoldMT, Arial;}</style></defs><rect id="canvas_background" data-name="canvas background" class="cls-1" width="582" height="402"/><path id="svg_1" data-name="svg 1" class="cls-2" d="M63.5,514.18c0,247.43,200.58,448,448,448s448-200.57,448-448-200.58-448-448-448S63.5,266.76,63.5,514.18Z" transform="translate(1 1)"/><line id="svg_2" data-name="svg 2" class="cls-3" x1="141" y1="251" x2="881" y2="251"/><line id="svg_3" data-name="svg 3" class="cls-3" x1="431" y1="71" x2="431" y2="251"/><line id="svg_4" data-name="svg 4" class="cls-3" x1="141" y1="775" x2="881" y2="775"/><line id="svg_5" data-name="svg 5" class="cls-3" x1="381" y1="861" x2="641" y2="861"/><line id="svg_6" data-name="svg 6" class="cls-3" x1="641" y1="775" x2="641" y2="863"/><line id="svg_7" data-name="svg 7" class="cls-3" x1="381" y1="859" x2="381" y2="941"/><path id="svg_8" data-name="svg 8" class="cls-4" d="M512,950.86c241.37,0,438.86-197.49,438.86-438.86S753.37,73.14,512,73.14,73.14,270.63,73.14,512,270.63,950.86,512,950.86Zm0,73.14C226.74,1024,0,797.26,0,512S226.74,0,512,0s512,226.74,512,512S797.26,1024,512,1024Z" transform="translate(1 1)"/><g id="svg_14" data-name="svg 14"><path id="svg_12" data-name="svg 12" d="M347.76,124a56.9,56.9,0,0,0,3.78,18.47A48.6,48.6,0,0,0,363.67,161a1.64,1.64,0,0,0,.52,1.48c-.18,1.92-.34,3.84-.52,5.76a11.07,11.07,0,0,0,4.6,10.7c3.78,2.77,7.68,5.35,11.58,8a3.68,3.68,0,0,1,3.84-3.52,3.58,3.58,0,0,1,1.9.69c.31-3.43.59-6.86.8-10.29.09-1.73.06-1.73,1.69-1.95a13.2,13.2,0,0,0,10-6.49,15,15,0,0,1,2-6.39c.06-.69.33-.85.95-.88,3.47-.19,7-.41,10.44-.69a3.8,3.8,0,0,0,2.79-5.95c-1.07-1.82-2.24-3.62-3.38-5.44s-2.42-3.9-3.62-5.86a10.94,10.94,0,0,0-9.52-5.53,64.25,64.25,0,0,0-7,.66,1.06,1.06,0,0,1-1.07-.38,47.68,47.68,0,0,0-19.84-13.28,53.84,53.84,0,0,0-13.3-3.12,24.25,24.25,0,0,0-6.91.1c-1.26.25-1.32.28-1.5,1.54a20.73,20.73,0,0,0-.31,3.84ZM360.9,139.7a7.68,7.68,0,1,1,15.36.07,7.68,7.68,0,1,1-15.36-.07Z" transform="translate(1 1)"/><path id="svg_13" data-name="svg 13" d="M406.11,163.75a1.89,1.89,0,0,0-2,1.54,17.18,17.18,0,0,1-7.89,9.63,17.4,17.4,0,0,1-2.64,1.2,2,2,0,0,0-.8,3.49c1.81,1.89,3.65,3.74,5.46,5.6a1.82,1.82,0,0,0,2.09.6,2,2,0,0,0,1.32-1.89c0-.57,0-1.16,0-1.73,0-1.07,0-1.07,1-.76l6.11,2.08a2,2,0,0,0,1.78-.06,2,2,0,0,0,.83-2.49q-1-3.21-2.09-6.42c-.31-.91-.28-.94.71-1,.58,0,1.16,0,1.78,0a2,2,0,0,0,1.32-3.4c-1.91-1.95-3.81-3.91-5.68-5.86a1.83,1.83,0,0,1-1.35-.53Z" transform="translate(1 1)"/></g><text id="svg_15" data-name="svg 15" class="cls-5" transform="translate(230.42 238.41) scale(1.1 1)">100%</text><text id="svg_16" data-name="svg 16" class="cls-6" transform="translate(465.52 129.26) scale(0.97 1)">空气优质</text><text id="svg_19" data-name="svg 19" class="cls-6" transform="translate(465.25 178.6) scale(1.11 1)">晴天</text><text id="svg_21" data-name="svg 21" class="cls-7" transform="translate(466.37 227.93) scale(1.11 1)">24°C</text><text id="svg_22" data-name="svg 22" class="cls-7" transform="translate(577.46 178.6) scale(1.11 1)">25°</text><text id="svg_23" data-name="svg 23" class="cls-7" transform="translate(577.46 229.26) scale(1.11 1)">16°</text><g id="svg_28" data-name="svg 28"><path id="svg_27" data-name="svg 27" class="cls-8" d="M661.67,209.14l.5-.8h-22.5l1.25,2,9.12,14.6.88,1.4.87-1.4,9.88-15.8Zm-2.5,1.2-8.25,13.2-8.25-13.2Z" transform="translate(1 1)"/></g><g id="svg_30" data-name="svg 30"><path id="svg_29" data-name="svg 29" class="cls-8" d="M640.17,173.87l-.5.8h22.5l-1.25-2-9.13-14.6-.87-1.4-.88,1.4-9.87,15.8Zm2.5-1.2,8.25-13.2,8.25,13.2Z" transform="translate(1 1)"/></g><g id="svg_48" data-name="svg 48"><path id="svg_39" data-name="svg 39" d="M699.82,193.65a20.45,20.45,0,1,0,40.9,0v0a20.45,20.45,0,0,0-40.9,0Z" transform="translate(1 1)"/><path id="svg_40" data-name="svg 40" d="M721,159.44h0a2.29,2.29,0,0,1,2.6,2.59v4.9a2.29,2.29,0,0,1-2.6,2.59h0a2.29,2.29,0,0,1-2.59-2.59V162A2.29,2.29,0,0,1,721,159.44Z" transform="translate(1 1)"/><path id="svg_41" data-name="svg 41" d="M744.59,169.57h0a2.3,2.3,0,0,1,.06,3.67l-3.41,3.51a2.29,2.29,0,0,1-3.66.06h0a2.29,2.29,0,0,1-.06-3.66l3.41-3.52A2.29,2.29,0,0,1,744.59,169.57Z" transform="translate(1 1)"/><path id="svg_42" data-name="svg 42" d="M754.5,193.3h0A2.3,2.3,0,0,1,752,196l-4.9.15a2.29,2.29,0,0,1-2.67-2.51h0a2.29,2.29,0,0,1,2.51-2.67l4.9-.15A2.29,2.29,0,0,1,754.5,193.3Z" transform="translate(1 1)"/><path id="svg_43" data-name="svg 43" d="M745.08,217.17h0a2.28,2.28,0,0,1-3.66.17l-3.62-3.29a2.28,2.28,0,0,1-.17-3.66h0a2.29,2.29,0,0,1,3.66-.18l3.62,3.3A2.28,2.28,0,0,1,745.08,217.17Z" transform="translate(1 1)"/><path id="svg_44" data-name="svg 44" d="M721.74,227.83h0A2.29,2.29,0,0,1,719,225.4l-.31-4.88a2.3,2.3,0,0,1,2.43-2.75h0a2.29,2.29,0,0,1,2.75,2.42l.3,4.89A2.29,2.29,0,0,1,721.74,227.83Z" transform="translate(1 1)"/><path id="svg_45" data-name="svg 45" d="M697.52,219.19h0a2.3,2.3,0,0,1-.29-3.66l3.19-3.72a2.28,2.28,0,0,1,3.65-.29h0a2.29,2.29,0,0,1,.29,3.65l-3.19,3.73A2.29,2.29,0,0,1,697.52,219.19Z" transform="translate(1 1)"/><path id="svg_46" data-name="svg 46" d="M686.18,196.16h0a2.29,2.29,0,0,1,2.34-2.82l4.88-.46a2.28,2.28,0,0,1,2.82,2.33h0a2.3,2.3,0,0,1-2.34,2.83l-4.87.46A2.3,2.3,0,0,1,686.18,196.16Z" transform="translate(1 1)"/><path id="svg_47" data-name="svg 47" d="M694,171.68h0a2.3,2.3,0,0,1,3.65-.4l3.82,3.07a2.29,2.29,0,0,1,.4,3.64h0a2.29,2.29,0,0,1-3.64.4l-3.82-3.06A2.3,2.3,0,0,1,694,171.68Z" transform="translate(1 1)"/></g><g id="svg_53" data-name="svg 53"><path id="svg_52" data-name="svg 52" d="M221.31,700.06c-6.12,0-11.43,3.87-14.13,9.54-2.69-5.67-8-9.54-14.12-9.54-8.84,0-16,8.08-16,18,0,.72,0,1.42.09,2.12a25.33,25.33,0,0,0,.72,4.25c4.79,19.06,29.32,32.87,29.32,32.87s24.54-13.81,29.33-32.87a27.52,27.52,0,0,0,.71-4.25c.06-.7.09-1.41.09-2.12C237.31,708.14,230.14,700.06,221.31,700.06Zm9.86,24.4h-7.89l-7.74,13.68-4.79-9.72L201,743.87,193.58,720l-2.25,4.45h-8.14a1.92,1.92,0,0,1-1.81-1.58s0,0,0,0a2.05,2.05,0,0,1,1.81-2.62h6l5.28-10.41,7.69,24.93,9-14.25,4.62,9.37,5.44-9.65h10a2.06,2.06,0,0,1,1.8,2.62.06.06,0,0,1,0,0,1.91,1.91,0,0,1-1.81,1.59Z" transform="translate(1 1)"/></g><text id="svg_54" data-name="svg 54" class="cls-9" transform="translate(147.36 685.62) scale(0.93 1)">66-327</text><g id="svg_74" data-name="svg 74"><path id="svg_73" data-name="svg 73" class="cls-10" d="M692.16,742l-10.57-21.9c-1-2-2.91-2.66-4.48-1.56a4.49,4.49,0,0,0-1.2,5.16,2.55,2.55,0,0,0,.13.29l8.87,18H673.1l-7.17-14.13c-1-2-3-2.62-4.54-1.51a4.49,4.49,0,0,0-1.21,5.17c0,.1.09.2.13.29l5,10.18H643c-3,0-5.43-3.21-5.43-7.17a15.31,15.31,0,0,1,7.8-12.38c7.81-4.56,36.24-21.5,37.36-21.5.56-.66,5.58-2.61,8.36,2.6s6.14,7.82,11.15,7.82a9.54,9.54,0,0,0,4.43-1.36c3.29-1.81,7.08.24,8.46,4.6a10.86,10.86,0,0,1,.5,3.28V730.3c0,6.47-4,11.72-8.89,11.72H692.16Zm20.77,3.49H640.17c-1.47,0-2.66,1.57-2.66,3.5s1.19,3.5,2.66,3.5h72.76c1.46,0,2.65-1.56,2.65-3.49s-1.19-3.5-2.65-3.5Z" transform="translate(1 1)"/></g><text id="svg_75" data-name="svg 75" class="cls-11" transform="translate(725.17 751.74)">8848</text><text id="svg_76" data-name="svg 76" class="cls-12" transform="translate(246.01 835.49)">睡眠</text><text id="svg_77" data-name="svg 77" class="cls-12" transform="translate(666.88 835.49)">海拔</text><text id="svg_78" data-name="svg 78" class="cls-13" transform="translate(388.5 834.54)">8h30m</text><text id="svg_79" data-name="svg 79" class="cls-14" transform="translate(431.98 918.89)">43.5m</text><text class="cls-15" transform="translate(253.08 748.71)">99</text><text x="1" y="1"/></svg>